<svg id="Layer_1" enable-background="new 0 0 256 256" height="50" viewBox="0 0 256 256" width="50" xmlns="http://www.w3.org/2000/svg"><g><g><g><path d="m47.514 26.245c-.974 11.564-13.031 13.39-13.031 13.39 10.352.487 12.932 14.059 12.932 14.059.221-9.677 13.328-14.202 13.328-14.202-9.819-.588-13.229-13.247-13.229-13.247z" fill="#d4d853"/></g></g><g><g><path d="m60.833 37.994c-8.609-.515-11.839-12.025-11.87-12.141-.191-.702-.848-1.164-1.584-1.101-.725.066-1.298.642-1.359 1.367-.861 10.216-11.32 11.964-11.761 12.033-.763.115-1.314.79-1.273 1.56.04.77.657 1.384 1.428 1.421 9.033.425 11.505 12.718 11.528 12.842.138.711.76 1.217 1.473 1.217.042 0 .084-.002.126-.005.765-.064 1.357-.693 1.375-1.459.194-8.509 12.198-12.777 12.319-12.819.675-.235 1.092-.914.994-1.623-.098-.708-.682-1.249-1.396-1.292zm-13.573 10.348c-1.357-3.131-3.71-6.909-7.591-8.878 2.933-1.405 6.412-3.914 8.206-8.274 1.552 3.071 4.202 6.881 8.339 8.724-3.009 1.639-6.927 4.406-8.954 8.428z" fill="#3a312a"/></g></g><g><g><path d="m25.805 43.226c-.689 8.179-9.217 9.471-9.217 9.471 7.322.345 9.147 9.944 9.147 9.944.156-6.844 9.427-10.046 9.427-10.046-6.945-.415-9.357-9.369-9.357-9.369z" fill="#d4d853"/></g></g><g><g><path d="m35.251 51.098c-5.77-.345-7.977-8.186-7.999-8.265-.19-.702-.86-1.159-1.581-1.102-.726.065-1.3.642-1.361 1.368-.579 6.871-7.651 8.067-7.947 8.114-.763.115-1.314.79-1.273 1.561.04.77.657 1.384 1.428 1.421 6.039.284 7.728 8.644 7.744 8.726.136.712.759 1.22 1.473 1.22.041 0 .083-.001.125-.005.765-.063 1.358-.694 1.376-1.461.13-5.709 8.335-8.633 8.416-8.662.677-.234 1.094-.913.997-1.622-.099-.709-.684-1.25-1.398-1.293zm-9.59 6.796c-.924-1.886-2.341-3.948-4.45-5.281 1.857-1.041 3.7-2.63 4.874-4.917 1.058 1.874 2.656 3.956 4.944 5.225-1.85 1.1-3.991 2.74-5.368 4.973z" fill="#3a312a"/></g></g><g><g><path d="m25.805 16.568c-.689 8.179-9.217 9.471-9.217 9.471 7.322.345 9.147 9.944 9.147 9.944.156-6.845 9.427-10.045 9.427-10.045-6.945-.416-9.357-9.37-9.357-9.37z" fill="#d4d853"/></g></g><g><g><path d="m35.251 24.44c-5.77-.345-7.977-8.185-7.999-8.265-.19-.702-.86-1.165-1.581-1.102-.726.065-1.3.642-1.361 1.368-.579 6.871-7.651 8.067-7.947 8.114-.763.115-1.314.79-1.273 1.56.04.77.657 1.384 1.428 1.421 6.039.284 7.728 8.644 7.744 8.726.136.712.759 1.22 1.473 1.22.041 0 .083-.002.125-.005.765-.063 1.358-.694 1.376-1.461.13-5.709 8.336-8.634 8.416-8.662.677-.234 1.094-.913.997-1.622-.099-.708-.684-1.249-1.398-1.292zm-9.59 6.796c-.924-1.886-2.341-3.948-4.45-5.281 1.857-1.041 3.7-2.63 4.874-4.917 1.058 1.874 2.656 3.956 4.944 5.225-1.85 1.1-3.991 2.74-5.368 4.973z" fill="#3a312a"/></g></g><g><g><path d="m174.021 59.04-39.714-39.714c-3.446-3.446-9.033-3.446-12.479 0l-10.445 10.445-10.286 10.286-18.982 18.983c-3.446 3.446-3.446 9.033 0 12.479l39.714 39.714c3.446 3.446 9.033 3.446 12.479 0l39.714-39.714c3.444-3.446 3.444-9.033-.001-12.479z" fill="#ea6d7a"/></g></g><g><g><path d="m175.081 57.979-39.714-39.714c-1.949-1.95-4.542-3.024-7.3-3.024-2.757 0-5.35 1.074-7.3 3.024l-10.445 10.445c-.586.586-.586 1.536 0 2.121.586.586 1.535.586 2.121 0l10.445-10.445c1.384-1.383 3.223-2.145 5.179-2.145 1.957 0 3.796.762 5.179 2.145l39.714 39.714c1.384 1.383 2.146 3.223 2.146 5.179s-.762 3.795-2.146 5.179l-39.714 39.714c-1.383 1.383-3.222 2.145-5.179 2.145-1.956 0-3.795-.762-5.179-2.145l-39.713-39.714c-2.855-2.856-2.855-7.502 0-10.357l18.982-18.982c.586-.586.586-1.536 0-2.121-.586-.586-1.535-.586-2.121 0l-18.982 18.981c-4.024 4.025-4.024 10.575 0 14.6l39.714 39.714c1.95 1.95 4.543 3.024 7.3 3.024 2.758 0 5.351-1.074 7.3-3.024l39.714-39.714c1.95-1.95 3.024-4.542 3.024-7.3s-1.075-5.35-3.025-7.3z" fill="#3a312a"/></g></g><g><g><path d="m236.828 121.848-39.714-39.714c-3.446-3.446-9.033-3.446-12.478 0l-39.714 39.714c-3.446 3.446-3.446 9.033 0 12.479l39.714 39.714c3.446 3.446 9.033 3.446 12.478 0l39.714-39.714c3.446-3.447 3.446-9.033 0-12.479z" fill="#d4db56"/></g></g><g><g><path d="m237.889 120.787-39.714-39.714c-1.949-1.95-4.542-3.024-7.3-3.024-2.757 0-5.35 1.074-7.3 3.024l-39.714 39.714c-4.024 4.025-4.024 10.575 0 14.6l39.714 39.714c1.95 1.95 4.543 3.024 7.3 3.024 2.758 0 5.351-1.074 7.3-3.024l39.714-39.714c1.95-1.95 3.024-4.542 3.024-7.3s-1.074-5.35-3.024-7.3zm-2.121 12.479-39.714 39.714c-1.383 1.383-3.222 2.145-5.179 2.145-1.956 0-3.795-.762-5.179-2.145l-39.714-39.714c-2.854-2.855-2.854-7.502 0-10.357l39.714-39.714c1.384-1.383 3.223-2.145 5.179-2.145 1.957 0 3.796.762 5.179 2.145l39.714 39.714c1.384 1.383 2.146 3.223 2.146 5.179-.001 1.955-.763 3.794-2.146 5.178z" fill="#3a312a"/></g></g><g><g><path d="m111.213 121.848-39.714-39.714c-3.446-3.446-9.033-3.446-12.479 0l-39.714 39.714c-3.446 3.446-3.446 9.033 0 12.479l39.714 39.714c3.446 3.446 9.033 3.446 12.479 0l39.714-39.714c3.446-3.447 3.446-9.033 0-12.479z" fill="#8ac5dc"/></g></g><g><g><path d="m112.273 120.787-39.713-39.714c-4.025-4.025-10.574-4.024-14.6 0l-39.714 39.714c-4.024 4.025-4.024 10.575 0 14.6l39.714 39.714c2.013 2.013 4.656 3.018 7.3 3.018 2.643 0 5.287-1.006 7.3-3.018l39.714-39.714c1.95-1.95 3.025-4.542 3.025-7.3s-1.075-5.35-3.026-7.3zm-2.121 12.479-39.714 39.714c-2.855 2.854-7.502 2.854-10.357 0l-39.714-39.714c-2.854-2.855-2.854-7.502 0-10.357l39.714-39.714c2.854-2.854 7.501-2.855 10.357 0l39.714 39.714c1.384 1.383 2.146 3.223 2.146 5.179 0 1.955-.762 3.794-2.146 5.178z" fill="#3a312a"/></g></g><g><g><path d="m174.021 184.655-18.367-18.367-10.284-10.285-11.062-11.062c-3.446-3.446-9.033-3.446-12.479 0l-39.714 39.714c-3.446 3.446-3.446 9.033 0 12.479l39.714 39.714c3.446 3.446 9.033 3.446 12.479 0l39.714-39.714c3.444-3.446 3.444-9.033-.001-12.479z" fill="#87796f"/></g></g><g><g><path d="m175.081 183.595-18.367-18.367c-.586-.586-1.535-.586-2.121 0s-.586 1.536 0 2.121l18.367 18.367c1.384 1.383 2.146 3.223 2.146 5.179s-.762 3.795-2.146 5.179l-39.714 39.714c-1.383 1.383-3.222 2.145-5.179 2.145-1.956 0-3.795-.762-5.179-2.145l-39.714-39.714c-2.855-2.855-2.855-7.502 0-10.357l39.714-39.714c1.384-1.383 3.223-2.145 5.179-2.145 1.957 0 3.796.762 5.179 2.145l11.062 11.062c.586.586 1.535.586 2.121 0s.586-1.536 0-2.121l-11.062-11.062c-1.949-1.95-4.542-3.024-7.3-3.024-2.757 0-5.35 1.074-7.3 3.024l-39.714 39.714c-4.024 4.025-4.024 10.575 0 14.6l39.714 39.714c1.95 1.95 4.543 3.024 7.3 3.024 2.758 0 5.351-1.074 7.3-3.024l39.714-39.714c1.95-1.95 3.024-4.542 3.024-7.3 0-2.759-1.074-5.352-3.024-7.301z" fill="#3a312a"/></g></g><g><g><path d="m235.768 122.907-39.71-39.71c-1.39-1.39-3.23-2.15-5.18-2.15-1.96 0-3.8.76-5.18 2.15l-2.82 2.82 36.89 36.89c1.38 1.38 2.15 3.22 2.15 5.18s-.77 3.8-2.15 5.18l-36.89 36.89 2.82 2.82c1.38 1.39 3.22 2.15 5.18 2.15 1.95 0 3.79-.76 5.18-2.15l39.71-39.71c1.38-1.38 2.15-3.22 2.15-5.18-.001-1.96-.77-3.8-2.15-5.18z" fill="#b9c239"/></g></g></g></svg>